<svg width="900" height="700" viewBox="0 0 900 700" fill="none" xmlns="http://www.w3.org/2000/svg">
<path d="M828 36H72C52.1177 36 36 52.1177 36 72V628C36 647.882 52.1177 664 72 664H828C847.882 664 864 647.882 864 628V72C864 52.1177 847.882 36 828 36Z" fill="#E7FFD1"/>
<path d="M192 280H138C128.059 280 120 288.059 120 298V522C120 531.941 128.059 540 138 540H192C201.941 540 210 531.941 210 522V298C210 288.059 201.941 280 192 280Z" fill="#621BBB"/>
<path d="M332 220H278C268.059 220 260 228.059 260 238V522C260 531.941 268.059 540 278 540H332C341.941 540 350 531.941 350 522V238C350 228.059 341.941 220 332 220Z" fill="#7130C3"/>
<path d="M472 180H418C408.059 180 400 188.059 400 198V522C400 531.941 408.059 540 418 540H472C481.941 540 490 531.941 490 522V198C490 188.059 481.941 180 472 180Z" fill="#9658E3"/>
<path d="M612 140H558C548.059 140 540 148.059 540 158V522C540 531.941 548.059 540 558 540H612C621.941 540 630 531.941 630 522V158C630 148.059 621.941 140 612 140Z" fill="#DD00AC"/>
<path opacity="0.98" d="M75 420L205 320L345 280L485 180" stroke="#00B894" stroke-width="18" stroke-linecap="round" stroke-linejoin="round"/>
<path d="M485 206C499.359 206 511 194.359 511 180C511 165.641 499.359 154 485 154C470.641 154 459 165.641 459 180C459 194.359 470.641 206 485 206Z" fill="#00B894"/>
<path d="M450 642C593.594 642 710 627.673 710 610C710 592.327 593.594 578 450 578C306.406 578 190 592.327 190 610C190 627.673 306.406 642 450 642Z" fill="black" fill-opacity="0.18"/>
<path d="M628.476 366.793L545.62 353.16C533.016 351.086 521.118 359.622 519.044 372.226C516.97 384.83 525.506 396.729 538.11 398.803L620.966 412.436C633.57 414.51 645.469 405.974 647.543 393.37C649.617 380.765 641.08 368.867 628.476 366.793Z" fill="url(#paint0_linear_994_3572)"/>
<path d="M583.822 385.688C589.762 383.465 606.749 375.78 617.991 380.149C628.79 384.32 608.894 390.88 602.905 393.102L583.822 385.688ZM520.375 358.155C556.414 344.624 614.518 344.826 650.119 358.629C685.77 372.432 685.409 394.606 649.37 408.137C613.33 421.668 555.227 421.466 519.626 407.63C483.975 393.86 484.336 371.686 520.375 358.155ZM538.816 375.103C536.935 375.844 535.103 376.553 533.321 377.23L533.272 377.197L521.143 381.772L530.413 385.38C530.413 385.38 536.8 382.898 536.799 382.996C540.363 381.675 543.573 382.018 545.645 382.584L584.748 397.744C585.684 398.239 586.816 399.159 584.34 400.094C584.538 400.095 577.954 402.51 577.954 402.51L586.577 407.192L598.012 402.908C600.141 402.102 602.269 401.329 604.348 400.556L618.796 406.15L627.558 402.864L613.258 397.336C615.733 396.435 618.06 395.597 620.337 394.727L634.538 400.222L643.35 396.936L628.952 391.343C642.866 385.471 649.563 380.149 637.093 374.369C627.087 369.712 616.909 369.758 606.521 372.154C609.055 369.26 607.737 366.314 599.45 363.658C588.154 360.04 575.742 362.099 563.419 365.954L549.169 360.427L540.357 363.712L554.262 369.108C551.936 369.977 549.658 370.88 547.331 371.783L533.328 366.256L524.566 369.542L538.816 375.103ZM586.96 371.236C576.703 367.264 562.687 373.724 557.737 375.592L575.094 382.312C580.044 380.443 596.772 375.043 586.96 371.236ZM499.419 350.045C547.141 332.1 624.068 332.4 671.257 350.704C718.447 368.976 717.999 398.367 670.277 416.279C622.555 434.191 545.627 433.925 498.438 415.62C451.249 397.316 451.697 367.99 499.419 350.045ZM488.132 382.94C488.078 393.456 498.354 403.275 517.091 410.524C534.991 417.442 558.736 421.353 583.983 421.484C609.23 421.614 633.558 417.919 651.825 411.056C670.934 403.872 681.508 394.064 681.563 383.45C681.618 372.836 671.341 363.115 652.604 355.866C634.704 348.948 610.959 345.037 585.712 344.906C560.465 344.776 536.137 348.471 517.87 355.333C498.762 362.485 488.187 372.294 488.132 382.94Z" fill="#070710"/>
<path opacity="0.9" d="M706.123 504.805C706.123 504.374 705.945 503.987 705.665 503.702C705.867 502.632 706.1 501.565 706.1 500.474V488.151C706.1 487.739 705.921 487.378 705.662 487.095C705.867 486.017 706.1 484.942 706.1 483.842V471.519C706.1 471.103 705.921 470.736 705.658 470.453C705.867 469.365 706.1 468.28 706.1 467.169V454.84C706.1 454.425 705.921 454.058 705.658 453.775C705.867 452.687 706.1 451.602 706.1 450.491V438.168C706.1 437.754 705.921 437.389 705.66 437.106C705.867 436.023 706.1 434.941 706.1 433.835V421.513C706.1 421.167 705.921 420.888 705.732 420.627C705.962 419.487 706.1 418.338 706.1 417.18V404.834C706.1 404.42 705.921 404.057 705.66 403.774C705.867 402.692 706.1 401.612 706.1 400.507V382.785C706.1 382.725 706.042 382.689 706.035 382.631C705.164 355.93 651.321 335.036 583.315 335.036C515.208 335.036 461.296 355.988 460.572 382.785V383.296C460.572 383.544 460.654 383.783 460.664 384.031C460.651 384.113 460.572 384.165 460.572 384.251V400.507C460.572 401.612 460.805 402.692 461.011 403.774C460.751 404.057 460.572 404.42 460.572 404.834V417.18C460.572 418.286 460.805 419.368 461.012 420.451C460.751 420.733 460.572 421.098 460.572 421.513V433.835C460.572 434.942 460.805 436.023 461.012 437.106C460.751 437.389 460.572 437.754 460.572 438.168V450.491C460.572 451.602 460.805 452.687 461.014 453.775C460.751 454.058 460.572 454.425 460.572 454.84V467.169C460.572 468.274 460.805 469.354 461.011 470.436C460.751 470.718 460.572 471.082 460.572 471.496V483.818C460.572 484.923 460.798 486.011 461.008 487.1C460.751 487.381 460.572 487.741 460.572 488.151V500.474C460.572 501.629 460.727 502.77 460.953 503.905C460.752 504.171 460.572 504.465 460.572 504.823V517.152C460.572 518.257 460.805 519.337 461.011 520.419C460.751 520.701 460.572 521.065 460.572 521.479V533.825C460.572 558.869 514.496 578.485 583.336 578.485C652.175 578.485 706.099 558.869 706.099 533.825V521.479C706.099 521.122 705.92 520.83 705.72 520.566C705.945 519.429 706.122 518.287 706.122 517.129L706.123 504.805ZM583.315 338.2C648.583 338.2 702.224 358.221 702.885 382.784V383.295C702.885 383.418 702.9 383.535 702.926 383.652C702.419 408.351 648.966 428.389 583.336 428.389C517.391 428.389 463.742 408.157 463.742 383.295L463.739 382.826C464.404 358.221 518.044 338.2 583.315 338.2ZM583.336 431.554C642.532 431.554 690.597 415.861 702.929 394.261V400.506C702.929 423.387 649.28 442.001 583.336 442.001C517.391 442.001 463.742 423.387 463.742 400.506V394.261C476.074 415.861 524.139 431.554 583.336 431.554ZM583.336 461.84C613.567 461.84 642.586 457.865 665.048 450.642C665.884 450.379 666.34 449.481 666.074 448.649C665.807 447.823 664.916 447.354 664.082 447.629C641.924 454.752 613.248 458.674 583.336 458.674C517.391 458.674 463.743 440.061 463.743 417.179V410.656C476.075 430.646 524.14 445.167 583.336 445.167C642.533 445.167 690.597 430.646 702.93 410.656V417.179C702.93 425.75 695.166 434.051 680.476 441.18C679.689 441.561 679.36 442.511 679.744 443.296C680.016 443.859 680.581 444.187 681.168 444.187C681.402 444.187 681.636 444.14 681.859 444.029C692.097 439.063 699.167 433.426 702.929 427.403V433.834C702.929 456.715 649.28 475.329 583.336 475.329C517.391 475.329 463.742 456.715 463.742 433.834V427.328C476.074 447.318 524.139 461.84 583.336 461.84ZM583.336 478.495C642.532 478.495 690.597 463.974 702.929 443.984V450.49C702.929 473.383 649.28 492.008 583.336 492.008C517.391 492.008 463.742 473.383 463.742 450.49V443.984C476.074 463.974 524.139 478.495 583.336 478.495ZM583.336 495.173C642.532 495.173 690.597 480.643 702.929 460.644V467.169C702.929 490.05 649.28 508.663 583.336 508.663C517.391 508.663 463.742 490.05 463.742 467.169V460.644C476.074 480.643 524.139 495.173 583.336 495.173ZM497.114 515.78C497.29 515.839 497.469 515.867 497.645 515.867C498.295 515.867 498.907 515.463 499.136 514.812C499.428 513.991 498.998 513.083 498.174 512.79C476.292 505.016 463.741 494.452 463.741 483.817V477.318C476.074 497.307 524.138 511.828 583.335 511.828C642.531 511.828 690.596 497.307 702.928 477.318V483.841C702.928 506.722 649.28 525.341 583.335 525.341C556.71 525.341 531.426 522.299 510.221 516.553C509.381 516.354 508.508 516.829 508.279 517.667C508.05 518.511 508.549 519.384 509.395 519.613C530.867 525.434 556.434 528.506 583.335 528.506C642.531 528.506 690.596 513.984 702.928 493.991V500.472C702.928 523.353 649.28 541.966 583.335 541.966C557.97 541.966 533.732 539.199 513.236 533.975C482.242 526.084 463.741 513.556 463.741 500.471V493.921C468.868 502.217 480.213 509.771 497.114 515.78ZM702.929 533.825C702.929 556.706 649.28 575.319 583.336 575.319C517.391 575.319 463.742 556.706 463.742 533.825V527.302C476.074 547.291 524.139 561.812 583.336 561.812C597.647 561.812 611.634 560.945 624.905 559.221C629.976 558.576 635.1 557.767 640.576 556.747C641.438 556.583 642.003 555.757 641.841 554.895C641.68 554.033 640.819 553.476 639.996 553.629C634.582 554.643 629.516 555.44 624.504 556.079C611.361 557.779 597.509 558.647 583.336 558.647C517.391 558.647 463.742 540.033 463.742 517.152V510.749C470.383 521.374 487.316 530.648 512.455 537.049C533.203 542.337 557.713 545.134 583.336 545.134C642.567 545.134 690.655 530.596 702.953 510.589V517.129C702.953 526.62 693.139 535.971 675.317 543.469C674.508 543.809 674.13 544.735 674.47 545.544C674.725 546.148 675.311 546.511 675.93 546.511C676.135 546.511 676.342 546.476 676.542 546.388C689.729 540.843 698.565 534.363 702.93 527.325L702.929 533.825Z" fill="#D4D5F1"/>
<path opacity="0.9" d="M665.661 547.068C661.176 548.575 656.149 550.006 650.723 551.313C649.873 551.518 649.349 552.374 649.554 553.224C649.73 553.951 650.377 554.437 651.095 554.437C651.215 554.437 651.341 554.425 651.467 554.396C656.98 553.066 662.099 551.612 666.669 550.07C667.498 549.794 667.947 548.892 667.665 548.065C667.387 547.238 666.502 546.787 665.661 547.068Z" fill="#D4D5F1"/>
<path opacity="0.9" d="M493.27 407.447C494.056 407.84 495.005 407.529 495.4 406.75C495.796 405.97 495.485 405.02 494.706 404.621C482.161 398.243 475.531 390.868 475.531 383.294C475.531 362.799 524.902 345.487 583.342 345.487C641.781 345.487 691.149 362.799 691.149 383.294C691.149 403.789 641.781 421.107 583.342 421.107C557.337 421.107 532.195 417.753 512.545 411.668C511.702 411.41 510.817 411.873 510.565 412.711C510.304 413.549 510.773 414.435 511.607 414.693C531.553 420.872 557.027 424.272 583.342 424.272C645.572 424.272 694.319 406.275 694.319 383.293C694.319 360.312 645.572 342.32 583.342 342.32C521.112 342.32 472.361 360.318 472.361 383.293C472.361 392.14 479.591 400.494 493.27 407.447Z" fill="#D4D5F1"/>
<g opacity="0.9">
<path opacity="0.9" d="M489.866 405.331H489.837C488.961 405.331 488.252 404.621 488.252 403.748C488.252 402.875 488.961 402.165 489.837 402.165C490.713 402.165 491.437 402.875 491.437 403.748C491.437 404.621 490.742 405.331 489.866 405.331Z" fill="#D4D5F1"/>
</g>
<path d="M703.699 285.571L701.413 298.316L700.747 301.936C700.592 302.779 700.37 303.601 700.081 304.423C699.837 305.112 699.548 305.8 699.215 306.466C699.06 306.821 698.838 307.154 698.661 307.51C693.8 315.747 681.771 321.788 664.992 325.207C659.977 326.251 654.539 327.05 648.746 327.605H648.613C648.369 327.605 648.103 327.649 647.858 327.672H647.748C626.531 329.603 600.63 328.293 573.198 323.253C545.612 318.168 520.865 310.107 501.689 300.692C501.49 300.581 501.29 300.492 501.09 300.403C495.697 297.761 490.77 294.985 486.353 292.121C472.327 283.127 463.427 273.424 461.674 264.186C461.563 263.654 461.496 263.165 461.452 262.654C461.385 261.899 461.363 261.167 461.363 260.434C461.363 259.568 461.474 258.746 461.63 257.88L462.296 254.261L465.714 240.271C464.493 252.24 466.579 255.659 469.442 259.634C472.305 263.609 485.977 278.154 505.995 287.591C525.992 297.028 548.564 305 574.375 309.73C600.186 314.46 612.593 316.725 645.151 314.37C677.687 312.016 702.479 300.581 703.699 285.571Z" fill="#1B1E4A"/>
<path d="M630.859 256.259L551.828 227.886C539.806 223.57 526.561 229.817 522.245 241.839C517.929 253.862 524.176 267.107 536.198 271.423L615.229 299.796C627.251 304.112 640.496 297.865 644.812 285.843C649.128 273.82 642.881 260.575 630.859 256.259Z" fill="url(#paint1_linear_994_3572)"/>
<path d="M583.52 266.87C589.764 265.757 607.858 261.267 618.127 267.596C627.996 273.65 607.243 276.507 600.95 277.61L583.52 266.87ZM526.087 228.325C563.975 221.528 621.087 232.226 653.611 252.236C686.184 272.254 681.826 293.998 643.937 300.794C606.048 307.59 548.937 296.892 516.419 276.851C483.84 256.865 488.198 235.121 526.087 228.325ZM541.165 248.326C539.181 248.715 537.251 249.081 535.376 249.425L535.333 249.383L522.578 251.692L531.045 256.915C531.045 256.915 537.774 255.628 537.756 255.724C541.5 255.07 544.595 255.987 546.531 256.918L582.254 278.895C583.086 279.551 584.032 280.66 581.429 281.132C581.623 281.169 574.712 282.355 574.712 282.355L582.347 288.518L594.368 286.37C596.607 285.963 598.84 285.587 601.025 285.202L614.225 293.315L623.436 291.667L610.37 283.646C612.967 283.206 615.406 282.803 617.803 282.359L630.779 290.329L640.039 288.69L626.887 280.586C641.632 277.325 649.18 273.301 637.958 265.363C628.957 258.975 618.938 257.18 608.288 257.659C611.304 255.271 610.538 252.135 602.867 248.026C592.41 242.426 579.831 242.208 567.015 243.774L553.996 235.762L544.737 237.401L557.439 245.22C554.994 245.655 552.591 246.132 550.139 246.599L537.364 238.633L528.153 240.282L541.165 248.326ZM589.215 253.222C579.844 247.462 564.892 251.283 559.686 252.226L575.545 261.972C580.751 261.028 598.179 258.739 589.215 253.222ZM506.938 216.561C557.115 207.535 632.723 221.73 675.832 248.261C718.947 274.759 713.201 303.586 663.031 312.58C612.86 321.575 537.246 307.411 494.137 280.881C451.028 254.35 456.762 225.588 506.938 216.561ZM489.9 246.876C487.948 257.209 496.282 268.723 513.403 279.239C529.76 289.278 552.408 297.415 577.217 302.106C602.025 306.796 626.62 307.557 645.825 304.109C665.916 300.496 678.088 292.759 680.057 282.33C682.027 271.9 673.675 260.483 656.554 249.967C640.197 239.928 617.549 231.79 592.74 227.1C567.932 222.409 543.337 221.648 524.132 225.097C504.047 228.678 491.875 236.414 489.9 246.876Z" fill="#070710"/>
<path opacity="0.9" d="M512.367 224.509C534.097 220.71 562.123 221.566 591.285 226.953C619.849 232.212 645.945 241.152 664.762 252.121C682.85 262.662 692.219 274.158 690.464 283.661C689.498 288.973 685.235 293.551 677.797 297.274C677.014 297.666 676.698 298.616 677.09 299.402C677.366 299.959 677.926 300.275 678.505 300.275C678.745 300.275 678.986 300.223 679.214 300.112C687.59 295.914 692.425 290.573 693.581 284.236C695.62 273.179 685.952 260.798 666.356 249.378C647.23 238.234 620.775 229.164 591.859 223.835C562.333 218.389 533.909 217.516 511.822 221.391C510.96 221.537 510.384 222.364 510.533 223.226C510.683 224.088 511.526 224.673 512.367 224.509Z" fill="#D4D5F1"/>
<path opacity="0.9" d="M502.517 278.883C521.643 290.027 548.101 299.097 577.014 304.426C594.504 307.656 611.567 309.268 627.086 309.268C641.872 309.268 655.255 307.803 666.262 304.859C667.108 304.637 667.609 303.763 667.384 302.919C667.164 302.075 666.288 301.588 665.447 301.8C643.316 307.703 611.288 307.521 577.588 301.307C549.023 296.049 522.928 287.109 504.113 276.14C486.023 265.599 476.656 254.103 478.411 244.6C479.483 238.743 484.757 233.619 493.657 229.774C494.46 229.428 494.832 228.496 494.483 227.692C494.135 226.889 493.203 226.514 492.403 226.866C482.486 231.145 476.568 237.078 475.293 244.025C473.252 255.082 482.921 267.457 502.517 278.883Z" fill="#D4D5F1"/>
<path opacity="0.9" d="M593.149 216.659C527.633 204.58 471.966 214.729 464.399 239.596C464.345 239.702 464.224 239.753 464.195 239.874L463.935 240.938C463.912 241.038 463.856 241.128 463.835 241.228C463.771 241.451 463.706 241.721 463.688 241.867C463.682 241.903 463.688 241.939 463.682 241.974L460.756 253.95L460.091 257.573C459.919 258.534 459.799 259.449 459.799 260.41C459.799 261.19 459.822 261.97 459.892 262.767C459.942 263.342 460.018 263.887 460.138 264.455C461.931 273.917 470.709 283.936 485.512 293.428C489.983 296.33 494.999 299.149 500.337 301.764L501.014 302.116C521.123 312 545.985 319.85 572.909 324.81C592.06 328.327 610.761 330.115 627.937 330.115C634.807 330.115 641.432 329.834 647.745 329.253C647.804 329.253 648.185 329.23 648.243 329.224L648.897 329.183C654.777 328.62 660.299 327.805 665.306 326.762C683.031 323.145 695.034 316.767 700.076 308.219L700.278 307.844C700.419 307.598 700.554 307.357 700.633 307.17C700.993 306.443 701.31 305.698 701.573 304.948C701.889 304.051 702.133 303.148 702.303 302.222L705.163 286.361C705.164 286.355 705.166 286.351 705.168 286.346C705.168 286.346 705.173 286.308 705.174 286.3L705.255 285.848C705.259 285.825 705.238 285.808 705.241 285.785C709.339 259.351 660.117 228.99 593.149 216.659ZM540.467 214.789C556.519 214.789 574.235 216.396 592.575 219.778C656.777 231.603 705.913 261.003 702.073 285.631C702.073 285.643 702.058 285.719 702.049 285.772C699.922 297.344 685.848 306.138 662.428 310.535C638.498 315.025 607.9 314.293 576.26 308.46C544.622 302.638 515.767 292.426 495.013 279.704C474.76 267.292 464.754 254.107 466.8 242.556L467.045 241.554C471.119 224.626 500.701 214.789 540.467 214.789ZM699.184 301.647C699.043 302.41 698.847 303.148 698.583 303.892C698.361 304.526 698.097 305.153 697.763 305.827C697.696 305.98 697.608 306.126 697.523 306.279L697.291 306.707C692.774 314.363 681.494 320.226 664.666 323.655C659.768 324.675 654.359 325.472 648.611 326.023C648.377 326.023 648.125 326.047 647.6 326.093C625.642 328.086 600.01 326.562 573.482 321.691C546.839 316.784 522.262 309.028 502.407 299.266L501.71 300.691L501.806 298.955C496.503 296.358 491.602 293.603 487.228 290.76C473.168 281.749 464.877 272.446 463.242 263.839C463.145 263.371 463.087 262.942 463.049 262.491C462.985 261.781 462.967 261.096 462.967 260.41C462.967 259.636 463.069 258.903 463.207 258.141L463.851 254.612L464.444 252.187C467.544 262.206 477.418 272.638 493.356 282.406C514.436 295.326 543.674 305.686 575.684 311.578C593.84 314.919 611.672 316.608 628.144 316.608C640.712 316.608 652.493 315.623 663.01 313.653C680.836 310.303 693.48 304.319 700.125 296.429L699.184 301.647Z" fill="#D4D5F1"/>
<defs>
<linearGradient id="paint0_linear_994_3572" x1="638.625" y1="398.725" x2="521.707" y2="370.004" gradientUnits="userSpaceOnUse">
<stop offset="0.1066" stop-color="#DD00AC"/>
<stop offset="0.5303" stop-color="#7130C3"/>
<stop offset="0.9634" stop-color="#621BBB"/>
</linearGradient>
<linearGradient id="paint1_linear_994_3572" x1="635.075" y1="289.5" x2="525.266" y2="240.135" gradientUnits="userSpaceOnUse">
<stop offset="0.1066" stop-color="#DD00AC"/>
<stop offset="0.5303" stop-color="#7130C3"/>
<stop offset="0.9634" stop-color="#621BBB"/>
</linearGradient>
</defs>
</svg>
