<svg width="1200" height="900" viewBox="0 0 1200 900" fill="none" xmlns="http://www.w3.org/2000/svg">
  <defs>
    <linearGradient id="bgGrad" x1="0" y1="0" x2="1" y2="1">
      <stop offset="0%" stop-color="#0F1630" />
      <stop offset="100%" stop-color="#0B1125" />
    </linearGradient>
    <linearGradient id="coinGrad" x1="0" y1="0" x2="1" y2="1">
      <stop offset="0%" stop-color="#F7931A" />
      <stop offset="100%" stop-color="#FFD280" />
    </linearGradient>
    <filter id="blurGlow" x="-40%" y="-40%" width="180%" height="180%">
      <feGaussianBlur stdDeviation="45" result="coloredBlur" />
      <feMerge>
        <feMergeNode in="coloredBlur" />
        <feMergeNode in="SourceGraphic" />
      </feMerge>
    </filter>
  </defs>

  <rect width="1200" height="900" rx="80" fill="url(#bgGrad)" />
  <circle cx="300" cy="220" r="110" fill="rgba(255,255,255,0.06)" />
  <circle cx="920" cy="170" r="70" fill="rgba(0,212,255,0.12)" />
  <circle cx="760" cy="580" r="130" fill="rgba(108,99,255,0.14)" />
  <circle cx="420" cy="700" r="90" fill="rgba(16,185,129,0.12)" />
  <rect x="100" y="540" width="580" height="260" rx="34" fill="rgba(255,255,255,0.06)" />
  <rect x="140" y="580" width="500" height="24" rx="12" fill="#fff" opacity="0.12" />
  <rect x="140" y="620" width="340" height="20" rx="10" fill="#fff" opacity="0.1" />
  <rect x="140" y="660" width="420" height="20" rx="10" fill="#fff" opacity="0.1" />
  <rect x="140" y="700" width="250" height="20" rx="10" fill="#fff" opacity="0.1" />
  <rect x="140" y="760" width="520" height="90" rx="40" fill="rgba(255,255,255,0.08)" />
  <circle cx="850" cy="390" r="110" fill="url(#coinGrad)" filter="url(#blurGlow)" opacity="0.55" />
  <g transform="translate(820 360)">
    <circle cx="0" cy="0" r="86" fill="url(#coinGrad)" />
    <circle cx="0" cy="0" r="66" fill="rgba(255,255,255,0.12)" />
    <path d="M-20 -14H-8V-26H20V-14H8V-2H20V10H8V26H-8V10H-20V-2H-8V-14Z" fill="#0F1630" />
  </g>
  <g transform="translate(380 410)">
    <circle cx="0" cy="0" r="54" fill="#627eea" opacity="0.95" />
    <path d="M-22 0C-22 0 -22 0 0 0C22 0 22 0 22 0C22 0 22 30 0 30C-22 30 -22 0 -22 0Z" fill="white" opacity="0.6" />
  </g>
  <g transform="translate(860 640)">
    <circle cx="0" cy="0" r="48" fill="#10b981" opacity="0.95" />
    <path d="M-18 0L-8 10L8 -10L18 0L8 10L-8 -10L-18 0Z" fill="white" opacity="0.6" />
  </g>
  <path d="M760 520C760 520 820 480 900 500" stroke="rgba(255,255,255,0.18)" stroke-width="6" stroke-linecap="round" />
</svg>
