<svg width="107" height="107" viewBox="0 0 107 107" fill="none" xmlns="http://www.w3.org/2000/svg">
<circle cx="53.5" cy="53.5" r="53.5" fill="#EAEBF0"/>
<path d="M69.7209 58.0205L71.7809 59.7305L70.5009 61.2705L68.1309 59.2905L65.7109 61.2105L64.4609 59.6505L66.5609 57.9805L64.5009 56.2705L65.7809 54.7305L68.1509 56.7105L70.5709 54.7905L71.8209 56.3505L69.7209 58.0205Z" fill="#239020"/>
<path d="M78.28 33H77V32C76.9976 31.2051 76.6808 30.4434 76.1187 29.8813C75.5566 29.3192 74.7949 29.0024 74 29H67.14V26C67.14 25.7348 67.0346 25.4804 66.8471 25.2929C66.6596 25.1054 66.4052 25 66.14 25C65.8748 25 65.6204 25.1054 65.4329 25.2929C65.2454 25.4804 65.14 25.7348 65.14 26V33.28C64.7587 33.5001 64.4607 33.8399 64.2922 34.2467C64.1238 34.6534 64.0942 35.1044 64.2081 35.5297C64.3221 35.955 64.5732 36.3307 64.9225 36.5988C65.2718 36.8668 65.6997 37.0121 66.14 37.0121C66.5803 37.0121 67.0082 36.8668 67.3575 36.5988C67.7068 36.3307 67.9579 35.955 68.0718 35.5297C68.1858 35.1044 68.1562 34.6534 67.9878 34.2467C67.8193 33.8399 67.5213 33.5001 67.14 33.28V31H74C74.265 31.0008 74.5189 31.1064 74.7062 31.2938C74.8936 31.4811 74.9992 31.735 75 32V40H27V32C27.0008 31.735 27.1064 31.4811 27.2938 31.2938C27.4811 31.1064 27.735 31.0008 28 31H33.14V29H28C27.2045 29.0005 26.4418 29.3168 25.8793 29.8793C25.3168 30.4418 25.0005 31.2045 25 32V74C25.0005 74.7955 25.3168 75.5582 25.8793 76.1207C26.4418 76.6832 27.2045 76.9995 28 77H29.28V78C29.2824 78.7949 29.5992 79.5566 30.1613 80.1187C30.7234 80.6808 31.4851 80.9976 32.28 81H78.28C79.0755 80.9995 79.8382 80.6832 80.4007 80.1207C80.9632 79.5582 81.2795 78.7955 81.28 78V36C81.2795 35.2045 80.9632 34.4418 80.4007 33.8793C79.8382 33.3168 79.0755 33.0005 78.28 33ZM28 75C27.735 74.9992 27.4811 74.8936 27.2938 74.7062C27.1064 74.5189 27.0008 74.265 27 74V42H75V74C74.9992 74.265 74.8936 74.5189 74.7062 74.7062C74.5189 74.8936 74.265 74.9992 74 75H28ZM79.28 78C79.2792 78.265 79.1736 78.5189 78.9862 78.7062C78.7989 78.8936 78.545 78.9992 78.28 79H32.28C32.015 78.9992 31.7611 78.8936 31.5738 78.7062C31.3864 78.5189 31.2808 78.265 31.28 78V77H74C74.7949 76.9976 75.5566 76.6808 76.1187 76.1187C76.6808 75.5566 76.9976 74.7949 77 74V35H78.28C78.545 35.0008 78.7989 35.1064 78.9862 35.2938C79.1736 35.4811 79.2792 35.735 79.28 36V78Z" fill="#023380"/>
<path d="M36.1406 37C36.5804 37.002 37.0085 36.8584 37.3581 36.5916C37.7077 36.3248 37.9592 35.9498 38.0734 35.5251C38.1875 35.1004 38.1579 34.6499 37.9892 34.2438C37.8205 33.8377 37.5221 33.4988 37.1406 33.28V31H43.1406V29H37.1406V26C37.1406 25.7348 37.0353 25.4804 36.8477 25.2929C36.6602 25.1054 36.4058 25 36.1406 25C35.8754 25 35.6211 25.1054 35.4335 25.2929C35.246 25.4804 35.1406 25.7348 35.1406 26V33.28C34.7591 33.4988 34.4607 33.8377 34.292 34.2438C34.1233 34.6499 34.0937 35.1004 34.2079 35.5251C34.322 35.9498 34.5736 36.3248 34.9232 36.5916C35.2728 36.8584 35.7009 37.002 36.1406 37ZM46.1406 37C46.5804 37.002 47.0085 36.8584 47.3581 36.5916C47.7077 36.3248 47.9592 35.9498 48.0734 35.5251C48.1875 35.1004 48.1579 34.6499 47.9892 34.2438C47.8205 33.8377 47.5221 33.4988 47.1406 33.28V31H53.1406V29H47.1406V26C47.1406 25.7348 47.0353 25.4804 46.8477 25.2929C46.6602 25.1054 46.4058 25 46.1406 25C45.8754 25 45.6211 25.1054 45.4335 25.2929C45.246 25.4804 45.1406 25.7348 45.1406 26V33.28C44.7591 33.4988 44.4607 33.8377 44.292 34.2438C44.1233 34.6499 44.0937 35.1004 44.2079 35.5251C44.322 35.9498 44.5736 36.3248 44.9232 36.5916C45.2728 36.8584 45.7009 37.002 46.1406 37ZM56.1406 37C56.5804 37.002 57.0085 36.8584 57.3581 36.5916C57.7077 36.3248 57.9592 35.9498 58.0734 35.5251C58.1875 35.1004 58.1579 34.6499 57.9892 34.2438C57.8205 33.8377 57.5221 33.4988 57.1406 33.28V31H63.1406V29H57.1406V26C57.1406 25.7348 57.0353 25.4804 56.8477 25.2929C56.6602 25.1054 56.4058 25 56.1406 25C55.8754 25 55.6211 25.1054 55.4335 25.2929C55.246 25.4804 55.1406 25.7348 55.1406 26V33.28C54.7591 33.4988 54.4608 33.8377 54.292 34.2438C54.1233 34.6499 54.0937 35.1004 54.2079 35.5251C54.322 35.9498 54.5736 36.3248 54.9232 36.5916C55.2728 36.8584 55.7009 37.002 56.1406 37ZM53.1406 64.5V71.5H61.1406V64.5H53.1406ZM59.1406 69.5H55.1406V66.5H59.1406V69.5ZM41.1406 64.5V71.5H49.1406V64.5H41.1406ZM47.1406 69.5H43.1406V66.5H47.1406V69.5ZM30.1406 64.5V71.5H38.1406V64.5H30.1406ZM36.1406 69.5H32.1406V66.5H36.1406V69.5ZM64.1406 64.5V71.5H72.1406V64.5H64.1406ZM70.1406 69.5H66.1406V66.5H70.1406V69.5ZM53.1406 44.5V51.5H61.1406V44.5H53.1406ZM59.1406 49.5H55.1406V46.5H59.1406V49.5ZM64.1406 44.5V51.5H72.1406V44.5H64.1406ZM70.1406 49.5H66.1406V46.5H70.1406V49.5ZM58.7206 58.02L60.7806 59.73L59.5006 61.27L57.1306 59.29L54.7106 61.21L53.4606 59.65L55.5606 57.98L53.5006 56.27L54.7806 54.73L57.1506 56.71L59.5706 54.79L60.8206 56.35L58.7206 58.02ZM46.7806 58.02L48.8406 59.73L47.5606 61.27L45.1806 59.29L42.7606 61.21L41.5206 59.65L43.6106 57.98L41.5606 56.27L42.8406 54.73L45.2106 56.71L47.6306 54.79L48.8706 56.35L46.7806 58.02ZM35.7206 58.02L37.7806 59.73L36.5006 61.27L34.1306 59.29L31.7106 61.21L30.4606 59.65L32.5606 57.98L30.5006 56.27L31.7806 54.73L34.1506 56.71L36.5706 54.79L37.8206 56.35L35.7206 58.02Z" fill="#239020"/>
</svg>
