<svg width="107" height="107" viewBox="0 0 107 107" fill="none" xmlns="http://www.w3.org/2000/svg">
<circle cx="53.5" cy="53.5" r="53.5" fill="#EAEBF0"/>
<path d="M53.5002 58.1997C50.4481 58.2041 47.498 57.1019 45.1965 55.0973L22.7718 35.661C22.535 35.468 22.3393 35.2294 22.1965 34.9594C22.0536 34.6894 21.9664 34.3934 21.9401 34.089C21.9138 33.7847 21.9489 33.4781 22.0433 33.1876C22.1377 32.897 22.2895 32.6284 22.4897 32.3977C22.6899 32.1669 22.9344 31.9787 23.2087 31.8442C23.483 31.7097 23.7816 31.6317 24.0866 31.6148C24.3916 31.5979 24.6969 31.6424 24.9844 31.7458C25.2719 31.8491 25.5357 32.0091 25.7602 32.2163L48.2533 51.6526C49.7226 52.9164 51.5964 53.6114 53.5344 53.6114C55.4725 53.6114 57.3463 52.9164 58.8155 51.6526L81.4912 32.3988C81.7142 32.1765 81.9809 32.0028 82.2744 31.8886C82.5679 31.7745 82.8819 31.7223 83.1965 31.7354C83.5112 31.7486 83.8197 31.8267 84.1027 31.9649C84.3857 32.1032 84.637 32.2985 84.8407 32.5386C85.0445 32.7787 85.1964 33.0584 85.2867 33.3601C85.3771 33.6618 85.404 33.9789 85.3658 34.2915C85.3276 34.6041 85.2251 34.9054 85.0647 35.1764C84.9043 35.4475 84.6896 35.6824 84.434 35.8663L61.7812 55.1201C59.4791 57.1059 56.5404 58.1988 53.5002 58.1997Z" fill="#239020"/>
<path d="M77.7957 77.4068H29.2051C26.7745 77.3768 24.4538 76.3902 22.7457 74.6607C21.0376 72.9313 20.0799 70.5985 20.0801 68.1677V38.8309C20.0799 36.4001 21.0376 34.0673 22.7457 32.3379C24.4538 30.6084 26.7745 29.6218 29.2051 29.5918H77.7957C80.2461 29.5918 82.596 30.5652 84.3287 32.2979C86.0614 34.0305 87.0348 36.3805 87.0348 38.8309V68.1677C87.0348 70.6181 86.0614 72.9681 84.3287 74.7007C82.596 76.4334 80.2461 77.4068 77.7957 77.4068ZM29.2051 34.063C27.9847 34.0928 26.8242 34.5986 25.9717 35.4725C25.1192 36.3463 24.6422 37.5188 24.6426 38.7396V68.1677C24.6426 69.408 25.1353 70.5975 26.0123 71.4746C26.8893 72.3516 28.0788 72.8443 29.3191 72.8443H77.9098C79.1501 72.8443 80.3396 72.3516 81.2166 71.4746C82.0936 70.5975 82.5863 69.408 82.5863 68.1677V38.8309C82.5863 37.5906 82.0936 36.4011 81.2166 35.524C80.3396 34.647 79.1501 34.1543 77.9098 34.1543L29.2051 34.063Z" fill="#023380"/>
</svg>
