<svg width="107" height="107" viewBox="0 0 107 107" fill="none" xmlns="http://www.w3.org/2000/svg">
<circle cx="53.5" cy="53.5" r="53.5" fill="#EAEBF0"/>
<path d="M70.4962 64.1666C69.8914 63.3281 69.0382 62.701 68.0573 62.374C67.0765 62.0471 66.0176 62.0368 65.0306 62.3448L63.7752 62.7389C63.4511 62.8416 63.1029 62.839 62.7804 62.7316C62.4579 62.6242 62.1776 62.4175 61.9798 62.141L49.8561 45.3599C49.6997 45.1444 49.5991 44.8935 49.5633 44.6297C49.5274 44.3658 49.5575 44.0972 49.6507 43.8478L50.8349 40.6827C51.1192 39.9223 51.2112 39.1034 51.1025 38.299C50.9939 37.4945 50.688 36.7294 50.2122 36.0717L47.8603 32.8155C47.4467 32.2428 46.9149 31.7657 46.3009 31.4164C45.6869 31.0671 45.0051 30.8538 44.3015 30.791C43.5979 30.7282 42.889 30.8173 42.2228 31.0523C41.5566 31.2872 40.9488 31.6626 40.4403 32.153L35.0807 37.3205C34.3461 38.0329 33.8502 38.9554 33.6613 39.9611C33.4724 40.9668 33.5997 42.0064 34.0256 42.9368C36.8495 49.0914 44.8972 64.7314 58.606 76.9943C59.5029 77.7904 60.6614 78.2284 61.8606 78.2249C62.6642 78.2249 63.4559 78.03 64.1677 77.6568L70.7927 74.1787C71.4181 73.8503 71.9656 73.3914 72.3982 72.8331C72.8308 72.2747 73.1384 71.6299 73.3002 70.9424C73.4619 70.2548 73.4741 69.5405 73.3358 68.8479C73.1975 68.1552 72.912 67.5003 72.4987 66.9276L70.4962 64.1666ZM70.0623 70.1871C70.01 70.414 69.9088 70.6266 69.7658 70.8103C69.6228 70.994 69.4413 71.1442 69.2342 71.2504L62.6092 74.7285C62.3225 74.8835 61.9954 74.9474 61.6714 74.9119C61.3474 74.8764 61.042 74.7431 60.7956 74.5298C50.8041 65.1909 42.7338 53.9896 37.0383 41.5555C36.8966 41.2494 36.8535 40.9068 36.9149 40.5751C36.9763 40.2434 37.1392 39.9389 37.3812 39.7038L42.7342 34.538C43.0328 34.2455 43.4342 34.082 43.8522 34.0825C43.9024 34.08 43.9527 34.08 44.0029 34.0825C44.234 34.1013 44.4582 34.1703 44.6599 34.2848C44.8616 34.3992 45.0358 34.5563 45.1705 34.745L47.5224 38.0012C47.6781 38.2171 47.7781 38.468 47.8137 38.7318C47.8492 38.9955 47.8191 39.264 47.7261 39.5133L46.5436 42.6884C46.2588 43.4487 46.1666 44.2676 46.2753 45.0722C46.3839 45.8767 46.6901 46.6419 47.1663 47.2994L59.2967 64.0838C59.901 64.923 60.7542 65.5505 61.7352 65.8775C62.7163 66.2045 63.7754 66.2144 64.7623 65.9057L66.0177 65.5115C66.3422 65.4108 66.69 65.4143 67.0124 65.5216C67.3347 65.6288 67.6153 65.8344 67.8148 66.1094L69.8023 68.8737C69.9386 69.0605 70.0325 69.2748 70.0774 69.5017C70.1224 69.7285 70.1172 69.9624 70.0623 70.1871ZM76.7105 54.1215C76.7382 54.5599 76.5906 54.9913 76.3001 55.3208C76.0097 55.6504 75.6003 55.8511 75.1619 55.8788H75.0559C74.6341 55.8796 74.2279 55.7195 73.9202 55.4311C73.6124 55.1427 73.4262 54.7478 73.3997 54.3268C73.1605 50.4092 71.7652 46.6504 69.3903 43.5256C67.0154 40.4007 63.7674 38.05 60.0569 36.7706C59.8507 36.6987 59.6607 36.5869 59.4977 36.4416C59.3347 36.2963 59.202 36.1203 59.107 35.9237C59.012 35.727 58.9567 35.5136 58.9442 35.2956C58.9317 35.0776 58.9623 34.8593 59.0342 34.6531C59.1061 34.4469 59.2178 34.2569 59.3632 34.0939C59.5085 33.9309 59.6845 33.7981 59.8811 33.7032C60.0777 33.6082 60.2911 33.5529 60.5092 33.5404C60.7272 33.5279 60.9455 33.5585 61.1517 33.6303C65.4813 35.1229 69.2711 37.8659 72.0417 41.5125C74.8124 45.159 76.4394 49.5452 76.7171 54.1165L76.7105 54.1215ZM56.8802 40.9178C56.9512 40.7122 57.062 40.5225 57.2063 40.3596C57.3506 40.1968 57.5255 40.0639 57.7212 39.9687C57.9168 39.8735 58.1293 39.8178 58.3465 39.8047C58.5637 39.7917 58.7813 39.8216 58.987 39.8926C62.0803 40.9591 64.7878 42.9191 66.767 45.5248C68.7461 48.1304 69.9079 51.2645 70.1054 54.5306C70.1191 54.7478 70.0898 54.9655 70.0193 55.1714C69.9488 55.3773 69.8384 55.5673 69.6944 55.7305C69.5505 55.8937 69.3757 56.0269 69.1802 56.1225C68.9848 56.2182 68.7723 56.2744 68.5551 56.2878H68.4508C68.0287 56.2887 67.6223 56.1283 67.3145 55.8396C67.0067 55.5509 66.8207 55.1555 66.7945 54.7343C66.6374 52.1207 65.7082 49.6126 64.1246 47.5275C62.541 45.4424 60.3743 43.8741 57.8988 43.0213C57.4854 42.8766 57.1461 42.5741 56.9552 42.1799C56.7643 41.7857 56.7374 41.3319 56.8802 40.9178Z" fill="#239020"/>
<path d="M70.4962 64.1666C69.8914 63.3281 69.0382 62.701 68.0573 62.374C67.0765 62.0471 66.0176 62.0368 65.0306 62.3448L63.7752 62.7389C63.4511 62.8416 63.1029 62.839 62.7804 62.7316C62.4579 62.6242 62.1776 62.4175 61.9798 62.141L49.8561 45.3599C49.6997 45.1444 49.5991 44.8935 49.5633 44.6297C49.5274 44.3658 49.5575 44.0972 49.6507 43.8478L50.8349 40.6827C51.1192 39.9223 51.2112 39.1034 51.1025 38.299C50.9939 37.4945 50.688 36.7294 50.2122 36.0717L47.8603 32.8155C47.4467 32.2428 46.9149 31.7657 46.3009 31.4164C45.6869 31.0671 45.0051 30.8538 44.3015 30.791C43.5979 30.7282 42.889 30.8173 42.2228 31.0523C41.5566 31.2872 40.9488 31.6626 40.4403 32.153L35.0807 37.3205C34.3461 38.0329 33.8502 38.9554 33.6613 39.9611C33.4724 40.9668 33.5997 42.0064 34.0256 42.9368C36.8495 49.0914 44.8972 64.7314 58.606 76.9943C59.5029 77.7904 60.6614 78.2284 61.8606 78.2249C62.6642 78.2249 63.4559 78.03 64.1677 77.6568L70.7927 74.1787C71.4181 73.8503 71.9656 73.3914 72.3982 72.8331C72.8308 72.2747 73.1384 71.6299 73.3002 70.9424C73.4619 70.2548 73.4741 69.5405 73.3358 68.8479C73.1975 68.1552 72.912 67.5003 72.4987 66.9276L70.4962 64.1666ZM70.0623 70.1871C70.01 70.414 69.9088 70.6266 69.7658 70.8103C69.6228 70.994 69.4413 71.1442 69.2342 71.2504L62.6092 74.7285C62.3225 74.8835 61.9954 74.9474 61.6714 74.9119C61.3474 74.8764 61.042 74.7431 60.7956 74.5298C50.8041 65.1909 42.7338 53.9896 37.0383 41.5555C36.8966 41.2494 36.8535 40.9068 36.9149 40.5751C36.9763 40.2434 37.1392 39.9389 37.3812 39.7038L42.7342 34.538C43.0328 34.2455 43.4342 34.082 43.8522 34.0825C43.9024 34.08 43.9527 34.08 44.0029 34.0825C44.234 34.1013 44.4582 34.1703 44.6599 34.2848C44.8616 34.3992 45.0358 34.5563 45.1705 34.745L47.5224 38.0012C47.6781 38.2171 47.7781 38.468 47.8137 38.7318C47.8492 38.9955 47.8191 39.264 47.7261 39.5133L46.5436 42.6884C46.2588 43.4487 46.1666 44.2676 46.2753 45.0722C46.3839 45.8767 46.6901 46.6419 47.1663 47.2994L59.2967 64.0838C59.901 64.923 60.7542 65.5505 61.7352 65.8775C62.7163 66.2045 63.7754 66.2144 64.7623 65.9057L66.0177 65.5115C66.3422 65.4108 66.69 65.4143 67.0124 65.5216C67.3347 65.6288 67.6153 65.8344 67.8148 66.1094L69.8023 68.8737C69.9386 69.0605 70.0325 69.2748 70.0774 69.5017C70.1224 69.7285 70.1172 69.9624 70.0623 70.1871Z" fill="#023380"/>
</svg>
