<svg width="107" height="107" viewBox="0 0 107 107" fill="none" xmlns="http://www.w3.org/2000/svg">
<circle cx="53.5" cy="53.5" r="53.5" fill="#EAEBF0"/>
<g clip-path="url(#clip0_916_204)">
<path d="M53.669 28.7498C60.7442 28.7498 62.9729 31.5799 62.9729 40.8602C62.9729 47.5462 58.7985 52.9705 53.669 52.9705C48.5395 52.9705 44.3298 47.5462 44.3298 40.8602C44.3298 31.5799 46.4995 28.7498 53.6336 28.7498M53.6336 25C42.5256 25 40.6035 32.0752 40.6035 40.8602C40.6035 49.6452 46.4995 56.7322 53.669 56.7322C60.8385 56.7322 66.7345 49.6216 66.7345 40.8602C66.7345 32.0988 64.8124 25 53.669 25H53.6336Z" fill="#239020"/>
<path d="M32.8913 81.0009L32.7498 80.8829V80.5763C32.7685 80.2268 32.7685 79.8764 32.7498 79.5269C32.9975 66.8151 33.929 63.9025 45.3908 61.6149C47.8141 63.2852 50.7028 64.1477 53.6452 64.0794C56.5882 64.1525 59.4784 63.2896 61.8996 61.6149C67.5951 62.7941 70.6138 64.1737 72.1586 66.3317C74.0099 68.8787 74.4462 73.4776 74.517 80.0575V80.9065C74.4686 80.9566 74.4174 81.0038 74.3637 81.048H78.255V79.9985C78.0663 64.6926 76.0735 60.3767 60.8383 57.582C60.8383 57.582 58.6804 60.3296 53.6806 60.3296C48.6808 60.3296 46.5228 57.582 46.5228 57.582C31.4291 60.306 29.3184 64.5982 29 79.4561C29.0212 79.8489 29.0212 80.2425 29 80.6353V80.9891L32.8913 81.0009Z" fill="#023380"/>
</g>
<defs>
<clipPath id="clip0_916_204">
<rect width="49.3375" height="56" fill="white" transform="translate(29 25)"/>
</clipPath>
</defs>
</svg>
