<svg xmlns="http://www.w3.org/2000/svg" viewBox="0 0 16 16" id="user">
  <path fill="#231f20" d="M8 1C4.14 1 1 4.14 1 8c0 1.87.73 3.628 2.053 4.95A6.946 6.946 0 0 0 8 15c3.86 0 7-3.141 7-7.002C15 4.138 11.86 1 8 1Zm.002.998c3.308 0 6 2.692 6 6.002a5.978 5.978 0 0 1-1.6 4.066 5.829 5.829 0 0 0-2.562-1.752 2.993 2.993 0 0 0 1.107-2.322 2.99 2.99 0 0 0-3.005-2.98 2.991 2.991 0 0 0-2.983 3.006c0 .927.435 1.747 1.101 2.294-.967.331-1.84.91-2.52 1.694A5.95 5.95 0 0 1 1.998 8a6.01 6.01 0 0 1 6.004-6.002z"></path>
</svg>
